<svg width="88" height="32" viewBox="0 0 88 32" fill="none" xmlns="http://www.w3.org/2000/svg">
<path fill-rule="evenodd" clip-rule="evenodd" d="M10.5637 20.146C10.5308 20.1463 10.4979 20.1465 10.465 20.1465C5.39416 20.1465 1.28344 16.0358 1.28344 10.965C1.28344 5.89415 5.39416 1.78344 10.465 1.78344C12.9991 1.78344 15.2935 2.81008 16.9548 4.47012L17.8936 3.59394C15.9975 1.68322 13.3694 0.5 10.465 0.5C4.68533 0.5 0 5.18533 0 10.965C0 16.7446 4.68533 21.4299 10.465 21.4299C10.4979 21.4299 10.5308 21.4298 10.5637 21.4295V20.146Z" fill="#FBBA00"/>
<ellipse cx="18.4615" cy="5.23893" rx="0.78981" ry="0.789809" fill="#FBBA00"/>
<ellipse cx="2.41853" cy="11.1132" rx="0.740447" ry="0.740446" fill="#FBBA00"/>
<path fill-rule="evenodd" clip-rule="evenodd" d="M3.13091 12.602L2.07781 12.8707C2.92543 16.6945 6.33641 19.5541 10.4153 19.5541C10.4483 19.5541 10.4812 19.5539 10.5141 19.5536V18.4675C10.4812 18.4679 10.4483 18.4681 10.4153 18.4681C6.84352 18.4681 3.85852 15.9559 3.13091 12.602Z" fill="#FBBA00"/>
<ellipse cx="10.6131" cy="4.69592" rx="0.740447" ry="0.740446" fill="#FBBA00"/>
<path fill-rule="evenodd" clip-rule="evenodd" d="M10.5144 16.6904C10.4815 16.6909 10.4485 16.6912 10.4154 16.6912C7.28023 16.6912 4.73865 14.1496 4.73865 11.0145C4.73865 8.32615 6.60732 6.0743 9.11659 5.48697L8.86707 4.42979C5.8783 5.12986 3.65266 7.81224 3.65266 11.0145C3.65266 14.7494 6.68045 17.7772 10.4154 17.7772C10.4485 17.7772 10.4815 17.777 10.5144 17.7765V16.6904Z" fill="#FBBA00"/>
<ellipse cx="11.2545" cy="12.9397" rx="0.78981" ry="0.789809" fill="#0085FF"/>
<ellipse cx="19.6461" cy="19.5542" rx="0.78981" ry="0.789809" fill="#0085FF"/>
<ellipse cx="10.7115" cy="26.8106" rx="0.740447" ry="0.740446" fill="#0085FF"/>
<ellipse cx="2.66534" cy="27.6498" rx="0.78981" ry="0.789809" fill="#0085FF"/>
<path fill-rule="evenodd" clip-rule="evenodd" d="M10.5633 11.3601C10.5633 11.3601 10.5634 11.3601 10.5634 11.3601C14.6601 11.3601 18.0791 14.2615 18.8777 18.1214L19.9361 17.8762C19.0262 13.5345 15.1756 10.2741 10.5634 10.2741C10.5634 10.2741 10.5633 10.2741 10.5633 10.2741V11.3601Z" fill="#0085FF"/>
<path fill-rule="evenodd" clip-rule="evenodd" d="M12.6602 13.7837C15.1747 14.6525 16.9807 17.0406 16.9807 19.8505C16.9807 22.8358 14.9421 25.345 12.1811 26.0621L12.4397 27.1172C15.6756 26.2841 18.0666 23.3465 18.0666 19.8505C18.0666 16.5807 15.9751 13.7995 13.057 12.7716L12.6602 13.7837Z" fill="#0085FF"/>
<path fill-rule="evenodd" clip-rule="evenodd" d="M4.22203 28.2998L3.6144 29.2015C5.55441 30.6456 7.95913 31.5001 10.5634 31.5001C16.9974 31.5001 22.2131 26.2844 22.2131 19.8504C22.2131 13.4165 16.9974 8.20076 10.5634 8.20076C10.547 8.20076 10.5306 8.20079 10.5141 8.20086V9.28686C10.5306 9.28678 10.547 9.28675 10.5634 9.28675C16.3976 9.28675 21.1272 14.0163 21.1272 19.8504C21.1272 25.6846 16.3976 30.4141 10.5634 30.4141C8.18389 30.4141 5.98811 29.6274 4.22203 28.2998Z" fill="#0085FF"/>
<path d="M35.0224 11.1207C34.9589 11.1875 34.8502 11.1787 34.791 11.1082C34.5898 10.8686 34.3353 10.69 34.0274 10.5723C33.6722 10.4216 33.2955 10.3463 32.8973 10.3463C32.6605 10.3463 32.4291 10.3732 32.203 10.427C31.9878 10.4808 31.7886 10.5669 31.6057 10.6853C31.4335 10.8037 31.2935 10.9598 31.1859 11.1536C31.0783 11.3365 31.0244 11.5572 31.0244 11.8155C31.0244 12.203 31.159 12.499 31.4281 12.7035C31.6972 12.908 32.0308 13.0856 32.4291 13.2363C32.8273 13.387 33.2632 13.5323 33.7368 13.6722C34.2104 13.8121 34.6463 14.0059 35.0446 14.2534C35.4428 14.501 35.7765 14.8293 36.0456 15.2383C36.3147 15.6473 36.4492 16.1908 36.4492 16.8689C36.4492 17.4824 36.3362 18.0206 36.1102 18.4834C35.8841 18.9355 35.5774 19.3122 35.1899 19.6136C34.8132 19.915 34.3719 20.141 33.866 20.2917C33.3601 20.4424 32.8273 20.5177 32.2676 20.5177C31.5572 20.5177 30.8738 20.3993 30.2172 20.1625C29.6013 19.9404 29.0659 19.5762 28.6111 19.07C28.5601 19.0132 28.5645 18.9265 28.6194 18.8734L29.9299 17.6043C29.9952 17.5411 30.1018 17.553 30.1565 17.6258C30.3888 17.935 30.6782 18.1832 31.0244 18.3704C31.4335 18.5749 31.864 18.6772 32.3161 18.6772C32.5529 18.6772 32.7896 18.6449 33.0264 18.5803C33.2632 18.5157 33.4785 18.4189 33.6722 18.2897C33.866 18.1605 34.0221 17.9991 34.1405 17.8053C34.2589 17.6008 34.3181 17.3694 34.3181 17.1111C34.3181 16.6913 34.1835 16.3684 33.9144 16.1424C33.6453 15.9164 33.3117 15.728 32.9134 15.5773C32.5152 15.4159 32.0793 15.2652 31.6057 15.1253C31.1321 14.9853 30.6962 14.797 30.2979 14.5602C29.8997 14.3126 29.566 13.9897 29.2969 13.5915C29.0278 13.1825 28.8933 12.6389 28.8933 11.9608C28.8933 11.3688 29.0117 10.8576 29.2485 10.427C29.496 9.99649 29.8136 9.64129 30.201 9.36145C30.5993 9.07083 31.0514 8.85556 31.5572 8.71564C32.0631 8.57572 32.5798 8.50575 33.1072 8.50575C33.7099 8.50575 34.2911 8.59724 34.8508 8.78022C35.3759 8.94864 35.8508 9.21736 36.2756 9.58638C36.3365 9.63931 36.3393 9.73214 36.2838 9.79069L35.0224 11.1207Z" fill="#252A30"/>
<path d="M37.6311 14.1243C37.551 14.1243 37.486 14.0593 37.486 13.9792V12.6225C37.486 12.5424 37.551 12.4775 37.6311 12.4775H38.9394C39.0195 12.4775 39.0844 12.4125 39.0844 12.3324V10.3783C39.0844 10.2982 39.1493 10.2333 39.2294 10.2333H40.8768C40.9569 10.2333 41.0218 10.2982 41.0218 10.3783V12.3324C41.0218 12.4125 41.0867 12.4775 41.1668 12.4775H43.0079C43.088 12.4775 43.153 12.5424 43.153 12.6225V13.9792C43.153 14.0593 43.088 14.1243 43.0079 14.1243H41.1668C41.0867 14.1243 41.0218 14.1892 41.0218 14.2693V17.5147C41.0218 17.9022 41.0918 18.209 41.2317 18.435C41.3824 18.661 41.673 18.774 42.1035 18.774C42.2758 18.774 42.4641 18.7579 42.6686 18.7256C42.7532 18.7078 42.8304 18.6863 42.9003 18.6611C43.0118 18.621 43.153 18.6981 43.153 18.8167V20.0707C43.153 20.1268 43.1209 20.1783 43.069 20.1994C42.8805 20.276 42.6555 20.3283 42.3942 20.3563C42.1035 20.3993 41.8452 20.4208 41.6192 20.4208C41.1025 20.4208 40.6774 20.3616 40.3437 20.2433C40.0208 20.1356 39.7625 19.9688 39.5688 19.7428C39.3858 19.506 39.2566 19.2153 39.1813 18.8709C39.1167 18.5265 39.0844 18.1282 39.0844 17.6762V14.2693C39.0844 14.1892 39.0195 14.1243 38.9394 14.1243H37.6311Z" fill="#252A30"/>
<path d="M46.3773 17.0304C46.2908 17.0304 46.2232 17.1056 46.2377 17.1908C46.3237 17.6954 46.5423 18.094 46.8933 18.3866C47.2808 18.7095 47.749 18.8709 48.298 18.8709C48.7823 18.8709 49.186 18.774 49.5089 18.5803C49.8027 18.4002 50.0631 18.1826 50.2902 17.9273C50.3419 17.8692 50.4297 17.8585 50.4918 17.9055L51.6497 18.7806C51.7151 18.83 51.7267 18.9239 51.6734 18.9861C51.246 19.4856 50.772 19.8454 50.2515 20.0657C49.6918 20.3025 49.1052 20.4208 48.4917 20.4208C47.9105 20.4208 47.3616 20.324 46.8449 20.1302C46.3283 19.9365 45.8816 19.662 45.5049 19.3068C45.1281 18.9516 44.8268 18.5265 44.6007 18.0314C44.3855 17.5255 44.2778 16.9658 44.2778 16.3523C44.2778 15.7388 44.3855 15.1845 44.6007 14.6893C44.8268 14.1835 45.1281 13.7529 45.5049 13.3977C45.8816 13.0425 46.3283 12.7681 46.8449 12.5743C47.3616 12.3806 47.9105 12.2837 48.4917 12.2837C49.0299 12.2837 49.5196 12.3806 49.9609 12.5743C50.413 12.7573 50.7951 13.0264 51.1072 13.3816C51.4301 13.7368 51.6777 14.1781 51.8499 14.7055C52.0329 15.2221 52.1244 15.8195 52.1244 16.4976V16.8853C52.1244 16.9654 52.0594 17.0304 51.9793 17.0304H46.3773ZM50.0392 15.5773C50.1203 15.5773 50.1862 15.5106 50.1802 15.4296C50.1437 14.9292 49.9683 14.5318 49.6542 14.2373C49.3097 13.9036 48.8308 13.7368 48.2172 13.7368C47.636 13.7368 47.1732 13.9036 46.8288 14.2373C46.5283 14.5377 46.3326 14.9298 46.2416 15.4135C46.2254 15.4998 46.2933 15.5773 46.3811 15.5773H50.0392Z" fill="#252A30"/>
<path d="M53.9684 8.16643C53.9684 8.08633 54.0334 8.0214 54.1135 8.0214H55.7608C55.8409 8.0214 55.9059 8.08633 55.9059 8.16643V20.0821C55.9059 20.1622 55.8409 20.2271 55.7608 20.2271H54.1135C54.0334 20.2271 53.9684 20.1622 53.9684 20.0821V8.16643Z" fill="#252A30"/>
<path d="M58.1782 8.16643C58.1782 8.08633 58.2431 8.0214 58.3232 8.0214H59.9706C60.0507 8.0214 60.1156 8.08633 60.1156 8.16643V20.0821C60.1156 20.1622 60.0507 20.2271 59.9706 20.2271H58.3232C58.2431 20.2271 58.1782 20.1622 58.1782 20.0821V8.16643Z" fill="#252A30"/>
<path d="M67.1834 19.1928C67.1834 19.1755 67.1694 19.1615 67.1521 19.1615V19.1615C67.1414 19.1615 67.1314 19.167 67.1257 19.1761C66.8473 19.6099 66.4952 19.928 66.0694 20.1302C65.6388 20.324 65.1652 20.4208 64.6486 20.4208C64.2934 20.4208 63.9436 20.3724 63.5991 20.2755C63.2655 20.1787 62.9641 20.0334 62.695 19.8396C62.4367 19.6459 62.2268 19.4037 62.0654 19.1131C61.9039 18.8225 61.8232 18.4834 61.8232 18.096C61.8232 17.6762 61.8985 17.321 62.0492 17.0304C62.1999 16.729 62.399 16.4814 62.6466 16.2877C62.9049 16.0832 63.2009 15.9217 63.5346 15.8033C63.8682 15.6849 64.2127 15.5988 64.5679 15.545C64.9338 15.4804 65.2998 15.4428 65.6657 15.432C66.0317 15.4105 66.3761 15.3997 66.699 15.3997H67.0383C67.1184 15.3997 67.1834 15.3348 67.1834 15.2547V15.1898C67.1834 14.7055 67.0165 14.3449 66.6829 14.1081C66.3492 13.8606 65.924 13.7368 65.4074 13.7368C64.9984 13.7368 64.6163 13.8121 64.2611 13.9628C63.9529 14.0842 63.6812 14.2461 63.4459 14.4486C63.3861 14.5 63.2962 14.4994 63.2404 14.4436L62.425 13.6282C62.3688 13.572 62.3681 13.481 62.4255 13.4261C62.8326 13.0369 63.2991 12.753 63.8252 12.5743C64.4064 12.3806 65.0038 12.2837 65.6173 12.2837C66.1662 12.2837 66.6291 12.3483 67.0058 12.4775C67.3825 12.5959 67.6946 12.7519 67.9422 12.9457C68.1897 13.1394 68.3781 13.3654 68.5073 13.6238C68.6472 13.8713 68.7441 14.1243 68.7979 14.3826C68.8625 14.6409 68.9001 14.8938 68.9109 15.1414C68.9217 15.3782 68.927 15.5881 68.927 15.7711V20.0821C68.927 20.1622 68.8621 20.2271 68.782 20.2271H67.3284C67.2483 20.2271 67.1834 20.1622 67.1834 20.0821V19.1928ZM67.0704 16.9009C67.0704 16.8208 67.0054 16.7559 66.9253 16.7559H66.6667C66.3976 16.7559 66.0963 16.7667 65.7626 16.7882C65.4289 16.8097 65.1114 16.8635 64.81 16.9496C64.5194 17.025 64.2719 17.1434 64.0674 17.3048C63.8629 17.4555 63.7606 17.6708 63.7606 17.9506C63.7606 18.1336 63.7983 18.2897 63.8736 18.4189C63.9597 18.5373 64.0674 18.6395 64.1965 18.7256C64.3257 18.8117 64.471 18.8763 64.6324 18.9194C64.7939 18.9516 64.9553 18.9678 65.1168 18.9678C65.7841 18.9678 66.2739 18.8117 66.586 18.4996C66.9089 18.1767 67.0704 17.7408 67.0704 17.1918V16.9009Z" fill="#252A30"/>
<path d="M71.7058 14.2693C71.7058 14.1892 71.6408 14.1243 71.5607 14.1243H70.2524C70.1723 14.1243 70.1074 14.0593 70.1074 13.9792V12.6225C70.1074 12.5424 70.1723 12.4775 70.2524 12.4775H71.5607C71.6408 12.4775 71.7058 12.4125 71.7058 12.3324V11.3796C71.7058 10.8414 71.7434 10.3571 71.8188 9.92652C71.8941 9.48522 72.0341 9.10851 72.2386 8.79637C72.4538 8.48423 72.7498 8.24743 73.1265 8.08598C73.5033 7.91377 73.993 7.82766 74.5958 7.82766C74.9881 7.82766 75.355 7.85744 75.6963 7.917C75.7686 7.92963 75.8185 7.99578 75.8127 8.06899L75.7068 9.41965C75.6999 9.50802 75.616 9.56942 75.5292 9.55149C75.4475 9.53463 75.3678 9.51971 75.29 9.50675C75.1608 9.48522 75.0263 9.47446 74.8864 9.47446C74.6173 9.47446 74.402 9.51751 74.2406 9.60362C74.0791 9.68973 73.9499 9.80813 73.8531 9.95881C73.767 10.0987 73.7078 10.2656 73.6755 10.4593C73.654 10.6531 73.6432 10.8576 73.6432 11.0728V12.3324C73.6432 12.4125 73.7081 12.4775 73.7882 12.4775H75.2903C75.3704 12.4775 75.4353 12.5424 75.4353 12.6225V13.9792C75.4353 14.0593 75.3704 14.1243 75.2903 14.1243H73.7882C73.7081 14.1243 73.6432 14.1892 73.6432 14.2693V20.0821C73.6432 20.1622 73.5783 20.2271 73.4982 20.2271H71.8508C71.7707 20.2271 71.7058 20.1622 71.7058 20.0821V14.2693Z" fill="#252A30"/>
<path d="M81.5311 19.1928C81.5311 19.1755 81.5171 19.1615 81.4998 19.1615V19.1615C81.4891 19.1615 81.4792 19.167 81.4734 19.1761C81.195 19.6099 80.8429 19.928 80.4171 20.1302C79.9865 20.324 79.513 20.4208 78.9963 20.4208C78.6411 20.4208 78.2913 20.3724 77.9469 20.2755C77.6132 20.1787 77.3118 20.0334 77.0427 19.8396C76.7844 19.6459 76.5745 19.4037 76.4131 19.1131C76.2516 18.8225 76.1709 18.4834 76.1709 18.096C76.1709 17.6762 76.2463 17.321 76.3969 17.0304C76.5476 16.729 76.7468 16.4814 76.9943 16.2877C77.2526 16.0832 77.5486 15.9217 77.8823 15.8033C78.216 15.6849 78.5604 15.5988 78.9156 15.545C79.2815 15.4804 79.6475 15.4428 80.0135 15.432C80.3794 15.4105 80.7238 15.3997 81.0467 15.3997H81.3861C81.4662 15.3997 81.5311 15.3348 81.5311 15.2547V15.1898C81.5311 14.7055 81.3643 14.3449 81.0306 14.1081C80.6969 13.8606 80.2718 13.7368 79.7551 13.7368C79.3461 13.7368 78.964 13.8121 78.6088 13.9628C78.3006 14.0842 78.0289 14.2461 77.7936 14.4486C77.7338 14.5 77.6439 14.4994 77.5882 14.4436L76.7727 13.6282C76.7166 13.572 76.7158 13.481 76.7732 13.4261C77.1803 13.0369 77.6469 12.753 78.1729 12.5743C78.7541 12.3806 79.3515 12.2837 79.965 12.2837C80.514 12.2837 80.9768 12.3483 81.3535 12.4775C81.7302 12.5959 82.0424 12.7519 82.2899 12.9457C82.5375 13.1394 82.7258 13.3654 82.855 13.6238C82.9949 13.8713 83.0918 14.1243 83.1456 14.3826C83.2102 14.6409 83.2479 14.8938 83.2586 15.1414C83.2694 15.3782 83.2748 15.5881 83.2748 15.7711V20.0821C83.2748 20.1622 83.2098 20.2271 83.1297 20.2271H81.6761C81.596 20.2271 81.5311 20.1622 81.5311 20.0821V19.1928ZM81.4181 16.9009C81.4181 16.8208 81.3531 16.7559 81.273 16.7559H81.0145C80.7454 16.7559 80.444 16.7667 80.1103 16.7882C79.7767 16.8097 79.4591 16.8635 79.1578 16.9496C78.8671 17.025 78.6196 17.1434 78.4151 17.3048C78.2106 17.4555 78.1083 17.6708 78.1083 17.9506C78.1083 18.1336 78.146 18.2897 78.2213 18.4189C78.3075 18.5373 78.4151 18.6395 78.5442 18.7256C78.6734 18.8117 78.8187 18.8763 78.9802 18.9194C79.1416 18.9516 79.3031 18.9678 79.4645 18.9678C80.1319 18.9678 80.6216 18.8117 80.9337 18.4996C81.2566 18.1767 81.4181 17.7408 81.4181 17.1918V16.9009Z" fill="#252A30"/>
<path d="M85.3915 12.6225C85.3915 12.5424 85.4565 12.4775 85.5366 12.4775H87.1839C87.264 12.4775 87.329 12.5424 87.329 12.6225V20.0821C87.329 20.1622 87.264 20.2271 87.1839 20.2271H85.5366C85.4565 20.2271 85.3915 20.1622 85.3915 20.0821V12.6225ZM85.1171 9.8458C85.1171 9.53366 85.2301 9.26457 85.4561 9.03854C85.6929 8.80175 85.9889 8.68335 86.3441 8.68335C86.6993 8.68335 86.9953 8.79637 87.2321 9.0224C87.4796 9.23767 87.6034 9.51213 87.6034 9.8458C87.6034 10.1795 87.4796 10.4593 87.2321 10.6853C86.9953 10.9006 86.6993 11.0082 86.3441 11.0082C85.9889 11.0082 85.6929 10.8952 85.4561 10.6692C85.2301 10.4324 85.1171 10.1579 85.1171 9.8458Z" fill="#252A30"/>
</svg>
