<svg width="33" height="46" viewBox="0 0 33 46" fill="none" xmlns="http://www.w3.org/2000/svg">
<path fill-rule="evenodd" clip-rule="evenodd" d="M15.6751 29.1521C15.6263 29.1526 15.5775 29.1529 15.5287 29.1529C8.00422 29.1529 1.90446 23.0531 1.90446 15.5287C1.90446 8.00422 8.00422 1.90446 15.5287 1.90446C19.289 1.90446 22.6935 3.42784 25.1586 5.89112L26.5517 4.59098C23.7382 1.75574 19.8385 0 15.5287 0C6.95242 0 0 6.95242 0 15.5287C0 24.1049 6.95242 31.0573 15.5287 31.0573C15.5775 31.0573 15.6263 31.0571 15.6751 31.0567V29.1521Z" fill="#FFB530"/>
<circle cx="27.3948" cy="7.03185" r="1.17197" fill="#FFB530"/>
<circle cx="3.58908" cy="15.7484" r="1.09873" fill="#FFB530"/>
<path fill-rule="evenodd" clip-rule="evenodd" d="M4.64641 17.9577L3.08374 18.3564C4.34142 24.0305 9.40291 28.2739 15.4555 28.2739C15.5044 28.2739 15.5532 28.2736 15.602 28.2731V26.6615C15.5532 26.6621 15.5044 26.6624 15.4555 26.6624C10.1554 26.6624 5.726 22.9345 4.64641 17.9577Z" fill="#FFB530"/>
<circle cx="15.7484" cy="6.22611" r="1.09873" fill="#FFB530"/>
<path fill-rule="evenodd" clip-rule="evenodd" d="M15.6021 24.0242C15.5533 24.0251 15.5045 24.0255 15.4556 24.0255C10.8034 24.0255 7.032 20.2541 7.032 15.6019C7.032 11.613 9.80466 8.2716 13.5279 7.39993L13.1576 5.83121C8.72288 6.87017 5.42053 10.8504 5.42053 15.6019C5.42053 21.1441 9.91337 25.6369 15.4556 25.6369C15.5045 25.6369 15.5533 25.6366 15.6021 25.6359V24.0242Z" fill="#FFB530"/>
<circle cx="16.7005" cy="18.4586" r="1.17197" fill="#38B3E5"/>
<circle cx="29.1528" cy="28.2739" r="1.17197" fill="#38B3E5"/>
<circle cx="15.8948" cy="39.0414" r="1.09873" fill="#38B3E5"/>
<circle cx="3.95531" cy="40.2866" r="1.17197" fill="#38B3E5"/>
<path fill-rule="evenodd" clip-rule="evenodd" d="M15.6751 16.1146C15.6751 16.1146 15.6751 16.1146 15.6751 16.1146C21.754 16.1146 26.8274 20.4199 28.0124 26.1477L29.583 25.7838C28.2327 19.3413 22.5189 14.5032 15.6751 14.5032C15.6751 14.5032 15.6751 14.5032 15.6751 14.5032V16.1146Z" fill="#38B3E5"/>
<path fill-rule="evenodd" clip-rule="evenodd" d="M18.7865 19.711C22.5176 21.0004 25.1973 24.5439 25.1973 28.7134C25.1973 33.1432 22.1725 36.8665 18.0756 37.9305L18.4593 39.4962C23.2609 38.2599 26.8088 33.901 26.8088 28.7134C26.8088 23.8616 23.7053 19.7346 19.3752 18.2093L18.7865 19.711Z" fill="#38B3E5"/>
<path fill-rule="evenodd" clip-rule="evenodd" d="M6.26538 41.2511L5.36374 42.5892C8.24246 44.7319 11.8107 46 15.6752 46C25.2223 46 32.9618 38.2605 32.9618 28.7134C32.9618 19.1662 25.2223 11.4268 15.6752 11.4268C15.6508 11.4268 15.6264 11.4268 15.602 11.4269V13.0384C15.6264 13.0383 15.6508 13.0382 15.6752 13.0382C24.3324 13.0382 31.3504 20.0562 31.3504 28.7134C31.3504 37.3705 24.3324 44.3885 15.6752 44.3885C12.1443 44.3885 8.88601 43.2211 6.26538 41.2511Z" fill="#38B3E5"/>
</svg>
